<svg xmlns="http://www.w3.org/2000/svg" width="1275" height="1650" viewBox="0 0 1275 1650" role="img" aria-labelledby="title description">
  <title id="title">Prism Tail Star Garden coloring page</title>
  <desc id="description">A bright-eyed cosmic courier tends a garden of prism blooms and orbiting seeds.</desc>
  <rect width="1275" height="1650" fill="#ffffff"/>
  <g fill="#ffffff" stroke="#000000" stroke-linecap="round" stroke-linejoin="round" vector-effect="non-scaling-stroke">
    <rect x="38" y="38" width="1199" height="1574" rx="46" stroke-width="8"/>
    <rect x="62" y="62" width="1151" height="1526" rx="34" stroke-width="3"/>
    <circle cx="96.0" cy="96.0" r="22.0" stroke-width="4"/>
    <circle cx="96.0" cy="96.0" r="9.0" stroke-width="3"/>
    <circle cx="1179.0" cy="96.0" r="22.0" stroke-width="4"/>
    <circle cx="1179.0" cy="96.0" r="9.0" stroke-width="3"/>
    <circle cx="96.0" cy="1554.0" r="22.0" stroke-width="4"/>
    <circle cx="96.0" cy="1554.0" r="9.0" stroke-width="3"/>
    <circle cx="1179.0" cy="1554.0" r="22.0" stroke-width="4"/>
    <circle cx="1179.0" cy="1554.0" r="9.0" stroke-width="3"/>
    <path d="M 130 82 l 9 14 16 3 -12 12 2 17 -15 -8 -15 8 2 -17 -12 -12 16 -3 z" stroke-width="3"/>
    <path d="M 231 82 l 9 14 16 3 -12 12 2 17 -15 -8 -15 8 2 -17 -12 -12 16 -3 z" stroke-width="3"/>
    <path d="M 332 82 l 9 14 16 3 -12 12 2 17 -15 -8 -15 8 2 -17 -12 -12 16 -3 z" stroke-width="3"/>
    <path d="M 433 82 l 9 14 16 3 -12 12 2 17 -15 -8 -15 8 2 -17 -12 -12 16 -3 z" stroke-width="3"/>
    <path d="M 534 82 l 9 14 16 3 -12 12 2 17 -15 -8 -15 8 2 -17 -12 -12 16 -3 z" stroke-width="3"/>
    <path d="M 635 82 l 9 14 16 3 -12 12 2 17 -15 -8 -15 8 2 -17 -12 -12 16 -3 z" stroke-width="3"/>
    <path d="M 736 82 l 9 14 16 3 -12 12 2 17 -15 -8 -15 8 2 -17 -12 -12 16 -3 z" stroke-width="3"/>
    <path d="M 837 82 l 9 14 16 3 -12 12 2 17 -15 -8 -15 8 2 -17 -12 -12 16 -3 z" stroke-width="3"/>
    <path d="M 938 82 l 9 14 16 3 -12 12 2 17 -15 -8 -15 8 2 -17 -12 -12 16 -3 z" stroke-width="3"/>
    <path d="M 1039 82 l 9 14 16 3 -12 12 2 17 -15 -8 -15 8 2 -17 -12 -12 16 -3 z" stroke-width="3"/>
    <path d="M 1140 82 l 9 14 16 3 -12 12 2 17 -15 -8 -15 8 2 -17 -12 -12 16 -3 z" stroke-width="3"/>
    <circle cx="630.0" cy="540.0" r="220.0" stroke-width="8"/>
    <path d="M 448 545 Q 630 365 812 545 Q 630 725 448 545 Z" stroke-width="8"/>
    <ellipse cx="630.0" cy="545.0" rx="72.0" ry="128.0" stroke-width="7"/>
    <circle cx="630.0" cy="545.0" r="24.0" stroke-width="6"/>
    <path d="M 485 715 Q 390 805 430 950 Q 480 1090 650 1070 Q 770 1055 815 1160" stroke-width="9"/>
    <path d="M 775 820 Q 1000 770 1045 940 Q 1070 1055 920 1095 Q 800 1125 815 1240 Q 835 1370 1045 1365" stroke-width="9"/>
    <path d="M 475 760 Q 365 705 315 790 Q 270 870 350 950" stroke-width="7"/>
    <path d="M 560 735 Q 525 860 555 1035 M 700 735 Q 735 860 705 1035" stroke-width="7"/>
    <path d="M 540 1060 L 475 1305 L 590 1305 L 635 1080 L 680 1305 L 795 1305 L 720 1060" stroke-width="8"/>
    <path d="M 390 485 L 330 330 L 490 405 M 870 485 L 930 330 L 770 405" stroke-width="7"/>
    <circle cx="250.0" cy="1240.0" r="34.0" stroke-width="5"/>
    <ellipse cx="322.0" cy="1240.0" rx="25.0" ry="53.0" stroke-width="4" transform="rotate(90.0 322.0 1240.0)"/>
    <ellipse cx="300.9" cy="1290.9" rx="25.0" ry="53.0" stroke-width="4" transform="rotate(135.0 300.9 1290.9)"/>
    <ellipse cx="250.0" cy="1312.0" rx="25.0" ry="53.0" stroke-width="4" transform="rotate(180.0 250.0 1312.0)"/>
    <ellipse cx="199.1" cy="1290.9" rx="25.0" ry="53.0" stroke-width="4" transform="rotate(225.0 199.1 1290.9)"/>
    <ellipse cx="178.0" cy="1240.0" rx="25.0" ry="53.0" stroke-width="4" transform="rotate(270.0 178.0 1240.0)"/>
    <ellipse cx="199.1" cy="1189.1" rx="25.0" ry="53.0" stroke-width="4" transform="rotate(315.0 199.1 1189.1)"/>
    <ellipse cx="250.0" cy="1168.0" rx="25.0" ry="53.0" stroke-width="4" transform="rotate(360.0 250.0 1168.0)"/>
    <ellipse cx="300.9" cy="1189.1" rx="25.0" ry="53.0" stroke-width="4" transform="rotate(405.0 300.9 1189.1)"/>
    <circle cx="380.0" cy="1380.0" r="34.0" stroke-width="5"/>
    <ellipse cx="452.0" cy="1380.0" rx="25.0" ry="53.0" stroke-width="4" transform="rotate(90.0 452.0 1380.0)"/>
    <ellipse cx="438.2" cy="1422.3" rx="25.0" ry="53.0" stroke-width="4" transform="rotate(126.0 438.2 1422.3)"/>
    <ellipse cx="402.2" cy="1448.5" rx="25.0" ry="53.0" stroke-width="4" transform="rotate(162.0 402.2 1448.5)"/>
    <ellipse cx="357.8" cy="1448.5" rx="25.0" ry="53.0" stroke-width="4" transform="rotate(198.0 357.8 1448.5)"/>
    <ellipse cx="321.8" cy="1422.3" rx="25.0" ry="53.0" stroke-width="4" transform="rotate(234.0 321.8 1422.3)"/>
    <ellipse cx="308.0" cy="1380.0" rx="25.0" ry="53.0" stroke-width="4" transform="rotate(270.0 308.0 1380.0)"/>
    <ellipse cx="321.8" cy="1337.7" rx="25.0" ry="53.0" stroke-width="4" transform="rotate(306.0 321.8 1337.7)"/>
    <ellipse cx="357.8" cy="1311.5" rx="25.0" ry="53.0" stroke-width="4" transform="rotate(342.0 357.8 1311.5)"/>
    <ellipse cx="402.2" cy="1311.5" rx="25.0" ry="53.0" stroke-width="4" transform="rotate(378.0 402.2 1311.5)"/>
    <ellipse cx="438.2" cy="1337.7" rx="25.0" ry="53.0" stroke-width="4" transform="rotate(414.0 438.2 1337.7)"/>
    <circle cx="920.0" cy="1270.0" r="34.0" stroke-width="5"/>
    <ellipse cx="992.0" cy="1270.0" rx="25.0" ry="53.0" stroke-width="4" transform="rotate(90.0 992.0 1270.0)"/>
    <ellipse cx="975.2" cy="1316.3" rx="25.0" ry="53.0" stroke-width="4" transform="rotate(130.0 975.2 1316.3)"/>
    <ellipse cx="932.5" cy="1340.9" rx="25.0" ry="53.0" stroke-width="4" transform="rotate(170.0 932.5 1340.9)"/>
    <ellipse cx="884.0" cy="1332.4" rx="25.0" ry="53.0" stroke-width="4" transform="rotate(210.0 884.0 1332.4)"/>
    <ellipse cx="852.3" cy="1294.6" rx="25.0" ry="53.0" stroke-width="4" transform="rotate(250.0 852.3 1294.6)"/>
    <ellipse cx="852.3" cy="1245.4" rx="25.0" ry="53.0" stroke-width="4" transform="rotate(290.0 852.3 1245.4)"/>
    <ellipse cx="884.0" cy="1207.6" rx="25.0" ry="53.0" stroke-width="4" transform="rotate(330.0 884.0 1207.6)"/>
    <ellipse cx="932.5" cy="1199.1" rx="25.0" ry="53.0" stroke-width="4" transform="rotate(370.0 932.5 1199.1)"/>
    <ellipse cx="975.2" cy="1223.7" rx="25.0" ry="53.0" stroke-width="4" transform="rotate(410.0 975.2 1223.7)"/>
    <circle cx="1080.0" cy="1430.0" r="34.0" stroke-width="5"/>
    <ellipse cx="1152.0" cy="1430.0" rx="25.0" ry="53.0" stroke-width="4" transform="rotate(90.0 1152.0 1430.0)"/>
    <ellipse cx="1130.9" cy="1480.9" rx="25.0" ry="53.0" stroke-width="4" transform="rotate(135.0 1130.9 1480.9)"/>
    <ellipse cx="1080.0" cy="1502.0" rx="25.0" ry="53.0" stroke-width="4" transform="rotate(180.0 1080.0 1502.0)"/>
    <ellipse cx="1029.1" cy="1480.9" rx="25.0" ry="53.0" stroke-width="4" transform="rotate(225.0 1029.1 1480.9)"/>
    <ellipse cx="1008.0" cy="1430.0" rx="25.0" ry="53.0" stroke-width="4" transform="rotate(270.0 1008.0 1430.0)"/>
    <ellipse cx="1029.1" cy="1379.1" rx="25.0" ry="53.0" stroke-width="4" transform="rotate(315.0 1029.1 1379.1)"/>
    <ellipse cx="1080.0" cy="1358.0" rx="25.0" ry="53.0" stroke-width="4" transform="rotate(360.0 1080.0 1358.0)"/>
    <ellipse cx="1130.9" cy="1379.1" rx="25.0" ry="53.0" stroke-width="4" transform="rotate(405.0 1130.9 1379.1)"/>
    <circle cx="190.0" cy="1450.0" r="34.0" stroke-width="5"/>
    <ellipse cx="262.0" cy="1450.0" rx="25.0" ry="53.0" stroke-width="4" transform="rotate(90.0 262.0 1450.0)"/>
    <ellipse cx="234.9" cy="1506.3" rx="25.0" ry="53.0" stroke-width="4" transform="rotate(141.4 234.9 1506.3)"/>
    <ellipse cx="174.0" cy="1520.2" rx="25.0" ry="53.0" stroke-width="4" transform="rotate(192.9 174.0 1520.2)"/>
    <ellipse cx="125.1" cy="1481.2" rx="25.0" ry="53.0" stroke-width="4" transform="rotate(244.3 125.1 1481.2)"/>
    <ellipse cx="125.1" cy="1418.8" rx="25.0" ry="53.0" stroke-width="4" transform="rotate(295.7 125.1 1418.8)"/>
    <ellipse cx="174.0" cy="1379.8" rx="25.0" ry="53.0" stroke-width="4" transform="rotate(347.1 174.0 1379.8)"/>
    <ellipse cx="234.9" cy="1393.7" rx="25.0" ry="53.0" stroke-width="4" transform="rotate(398.6 234.9 1393.7)"/>
    <circle cx="900.0" cy="545.0" r="7.0" stroke-width="3"/>
    <line x1="882.0" y1="545.0" x2="918.0" y2="545.0" stroke-width="3"/>
    <line x1="900.0" y1="527.0" x2="900.0" y2="563.0" stroke-width="3"/>
    <circle cx="407.5" cy="749.2" r="8.0" stroke-width="3"/>
    <circle cx="658.6" cy="212.2" r="9.0" stroke-width="3"/>
    <circle cx="853.5" cy="834.8" r="10.0" stroke-width="3"/>
    <circle cx="237.8" cy="477.2" r="7.0" stroke-width="3"/>
    <line x1="219.8" y1="477.2" x2="255.8" y2="477.2" stroke-width="3"/>
    <line x1="237.8" y1="459.2" x2="237.8" y2="495.2" stroke-width="3"/>
    <circle cx="991.7" cy="312.5" r="8.0" stroke-width="3"/>
    <circle cx="561.4" cy="806.1" r="9.0" stroke-width="3"/>
    <circle cx="489.0" cy="277.9" r="10.0" stroke-width="3"/>
    <circle cx="944.6" cy="657.2" r="7.0" stroke-width="3"/>
    <line x1="926.6" y1="657.2" x2="962.6" y2="657.2" stroke-width="3"/>
    <line x1="944.6" y1="639.2" x2="944.6" y2="675.2" stroke-width="3"/>
    <circle cx="292.9" cy="687.6" r="8.0" stroke-width="3"/>
    <circle cx="795.2" cy="182.9" r="9.0" stroke-width="3"/>
    <circle cx="763.0" cy="953.9" r="10.0" stroke-width="3"/>
    <circle cx="394.8" cy="412.3" r="7.0" stroke-width="3"/>
    <line x1="376.8" y1="412.3" x2="412.8" y2="412.3" stroke-width="3"/>
    <line x1="394.8" y1="394.3" x2="394.8" y2="430.3" stroke-width="3"/>
    <circle cx="924.1" cy="476.5" r="8.0" stroke-width="3"/>
    <circle cx="441.6" cy="820.8" r="9.0" stroke-width="3"/>
    <circle cx="577.7" cy="182.8" r="10.0" stroke-width="3"/>
    <circle cx="938.2" cy="796.8" r="7.0" stroke-width="3"/>
    <line x1="920.2" y1="796.8" x2="956.2" y2="796.8" stroke-width="3"/>
    <line x1="938.2" y1="778.8" x2="938.2" y2="814.8" stroke-width="3"/>
    <circle cx="200.7" cy="569.8" r="8.0" stroke-width="3"/>
    <circle cx="818.1" cy="351.3" r="9.0" stroke-width="3"/>
    <circle cx="621.6" cy="846.9" r="10.0" stroke-width="3"/>
    <circle cx="411.1" cy="292.7" r="7.0" stroke-width="3"/>
    <line x1="393.1" y1="292.7" x2="429.1" y2="292.7" stroke-width="3"/>
    <line x1="411.1" y1="274.7" x2="411.1" y2="310.7" stroke-width="3"/>
  </g>
</svg>
